<?xml version="1.0" standalone="no"?>
<!DOCTYPE svg PUBLIC "-//W3C//DTD SVG 20010904//EN"
 "http://www.w3.org/TR/2001/REC-SVG-20010904/DTD/svg10.dtd">
<svg version="1.0" xmlns="http://www.w3.org/2000/svg"
 width="900.000000pt" height="1158.000000pt" viewBox="0 0 900.000000 1158.000000"
 preserveAspectRatio="xMidYMid meet">

<g transform="translate(0.000000,1158.000000) scale(0.100000,-0.100000)"
fill="#000000" stroke="none">
<path d="M6364 11170 c-137 -12 -302 -46 -443 -92 -137 -45 -283 -116 -916
-450 -203 -107 -595 -313 -870 -458 -275 -144 -630 -331 -790 -415 -159 -84
-558 -293 -885 -465 -981 -515 -1012 -531 -1099 -588 -172 -113 -367 -295
-484 -453 -422 -572 -494 -1312 -187 -1944 262 -541 752 -920 1346 -1040 67
-14 163 -28 213 -32 50 -3 88 -9 86 -13 -3 -5 -175 -97 -382 -206 -459 -240
-513 -271 -633 -360 -377 -280 -637 -692 -731 -1159 -27 -137 -38 -450 -19
-589 88 -678 538 -1261 1166 -1515 440 -178 897 -195 1337 -50 173 56 187 64
1497 754 107 57 638 336 1180 620 1990 1045 1852 970 1990 1074 91 68 262 232
334 321 300 368 457 869 418 1333 -55 638 -404 1184 -963 1504 -224 128 -529
222 -778 240 -56 4 -88 10 -83 15 5 5 193 106 418 224 428 225 573 314 714
436 342 297 577 745 630 1200 19 163 8 441 -24 594 -182 866 -923 1485 -1816
1518 -74 2 -176 1 -226 -4z m-2755 -3549 c97 -59 426 -263 731 -451 305 -189
781 -482 1058 -653 276 -171 499 -314 495 -318 -4 -4 -208 -131 -453 -281
-1545 -951 -1998 -1228 -2013 -1234 -16 -6 -17 82 -17 1520 0 1119 3 1526 11
1526 6 0 91 -49 188 -109z"/>
</g>
</svg>
